# xmcd CD database file
#
# Track frame offsets:
#	150
#	17115
#	38055
#	55020
#
# Disc length: 1009 seconds
#
# Revision: 2
# Processed by: cddbd v1.5.2PL0 Copyright (c) Steve Scherf et al.
# Submitted via: CDex 1.70beta2
#
DISCID=2703ef04
DTITLE=ソニン - 東京ミッドナイト ロンリネス
DYEAR=2003
DGENRE=Rock
TTITLE0=東京ミッドナイト ロンリネス
TTITLE1=夏が來ない
TTITLE2=東京ミッドナイト ロンリネス(Instrumental)
TTITLE3=夏が來ない(Instrumental)
EXTD=YEAR: 2003
EXTT0=
EXTT1=
EXTT2=
EXTT3=
PLAYORDER=
